<svg width="100" height="48" viewBox="0 0 100 48" fill="none" xmlns="http://www.w3.org/2000/svg">
<rect width="100" height="48" rx="10" fill="black"/>
<path d="M25.4744 32.299L24.8721 33.2408C24.449 33.9668 23.5119 34.2155 22.7791 33.7964C22.0464 33.3772 21.7952 32.4489 22.2183 31.7229L22.6005 31.1652C22.7468 30.9569 23.1079 30.5972 23.8303 30.6649C23.8303 30.6649 25.5303 30.8476 25.6533 31.7229C25.6533 31.7229 25.67 32.0109 25.4744 32.299ZM42.4678 26.1712H38.8534C38.6072 26.1548 38.4998 26.0677 38.4574 26.017L38.4548 26.0124L35 20.4118C34.6197 19.8356 34.0158 21.3091 34.0158 21.3091C33.2947 22.9511 34.1182 24.8178 34.4051 25.3821L39.1279 33.2388C39.5509 33.9647 40.4879 34.2136 41.2209 33.7943C41.9536 33.3751 42.2048 32.4468 41.7816 31.7208L40.4379 29.415C40.4118 29.3591 40.3665 29.2075 40.6421 29.2068H42.4678C43.314 29.2068 44 28.5272 44 27.6889C44 26.8506 43.314 26.1712 42.4678 26.1712ZM33.7639 28.2347C33.7639 28.2347 33.9568 29.2069 33.2103 29.2069L21.5322 29.2068C20.686 29.2068 20 28.5272 20 27.6889C20 26.8506 20.686 26.1711 21.5322 26.1711H24.9673C25.5219 26.1393 25.6533 25.8221 25.6533 25.8221L25.6565 25.8237L30.1404 18.1296L30.1391 18.1293C30.2208 17.9807 30.1527 17.8402 30.1409 17.818L28.66 15.277C28.2369 14.5511 28.488 13.6227 29.2208 13.2036C29.9537 12.7845 30.8907 13.0331 31.3138 13.7591L32.0006 14.9376L32.6862 13.7612C33.1093 13.0353 34.0463 12.7865 34.7792 13.2057C35.512 13.6249 35.7631 14.5531 35.34 15.2791L29.1003 25.9856C29.0731 26.0508 29.0647 26.1531 29.2677 26.1711L31.3138 26.1712C31.3138 26.1712 33.4703 26.2405 33.7639 28.2347Z" fill="white"/>
<path d="M52.976 31V22.296H55.072V31H52.976ZM52.976 21.32V19.08H55.072V21.32H52.976ZM62.5753 31.192C61.7006 31.192 60.8846 31.0373 60.1273 30.728C59.3699 30.4187 58.7086 29.9867 58.1432 29.432C57.5779 28.8773 57.1353 28.2267 56.8153 27.48C56.5059 26.7227 56.3512 25.9067 56.3512 25.032C56.3512 24.1467 56.5059 23.3307 56.8153 22.584C57.1246 21.8373 57.5619 21.1867 58.1273 20.632C58.6926 20.0773 59.3539 19.6507 60.1113 19.352C60.8686 19.0427 61.6899 18.888 62.5753 18.888C63.4606 18.888 64.2819 19.0427 65.0393 19.352C65.7966 19.6613 66.4579 20.0933 67.0233 20.648C67.5886 21.192 68.0259 21.8373 68.3353 22.584C68.6553 23.3307 68.8153 24.1467 68.8153 25.032C68.8153 25.9067 68.6553 26.7227 68.3353 27.48C68.0153 28.2267 67.5726 28.8773 67.0073 29.432C66.4419 29.9867 65.7806 30.4187 65.0233 30.728C64.2766 31.0373 63.4606 31.192 62.5753 31.192ZM62.5753 29.208C63.1619 29.208 63.7006 29.1067 64.1913 28.904C64.6819 28.6907 65.1086 28.3973 65.4713 28.024C65.8446 27.6507 66.1273 27.208 66.3193 26.696C66.5219 26.184 66.6233 25.6293 66.6233 25.032C66.6233 24.4347 66.5219 23.8853 66.3193 23.384C66.1273 22.872 65.8446 22.4293 65.4713 22.056C65.1086 21.672 64.6819 21.3787 64.1913 21.176C63.7006 20.9733 63.1619 20.872 62.5753 20.872C61.9993 20.872 61.4659 20.9733 60.9753 21.176C60.4846 21.3787 60.0526 21.672 59.6793 22.056C59.3166 22.4293 59.0339 22.872 58.8313 23.384C58.6286 23.8853 58.5273 24.4347 58.5273 25.032C58.5273 25.6293 58.6286 26.184 58.8313 26.696C59.0339 27.208 59.3166 27.6507 59.6793 28.024C60.0526 28.3973 60.4846 28.6907 60.9753 28.904C61.4659 29.1067 61.9993 29.208 62.5753 29.208ZM74.5261 31.192C73.7688 31.192 73.0648 31.0533 72.4141 30.776C71.7741 30.4987 71.2195 30.1147 70.7501 29.624C70.2915 29.1227 69.9555 28.5413 69.7421 27.88L71.5501 27.096C71.8381 27.7787 72.2541 28.3173 72.7981 28.712C73.3421 29.096 73.9555 29.288 74.6381 29.288C75.0221 29.288 75.3528 29.2293 75.6301 29.112C75.9181 28.984 76.1368 28.8133 76.2861 28.6C76.4461 28.3867 76.5261 28.1307 76.5261 27.832C76.5261 27.48 76.4195 27.192 76.2061 26.968C76.0035 26.7333 75.6941 26.552 75.2781 26.424L72.9901 25.688C72.0621 25.4 71.3635 24.968 70.8941 24.392C70.4248 23.816 70.1901 23.1387 70.1901 22.36C70.1901 21.6773 70.3555 21.0747 70.6861 20.552C71.0275 20.0293 71.4968 19.624 72.0941 19.336C72.7021 19.0373 73.3955 18.888 74.1741 18.888C74.8888 18.888 75.5448 19.016 76.1421 19.272C76.7395 19.5173 77.2515 19.864 77.6781 20.312C78.1155 20.7493 78.4408 21.2667 78.6541 21.864L76.8621 22.664C76.6275 22.0667 76.2755 21.608 75.8061 21.288C75.3368 20.9573 74.7928 20.792 74.1741 20.792C73.8115 20.792 73.4915 20.856 73.2141 20.984C72.9368 21.1013 72.7181 21.272 72.5581 21.496C72.4088 21.7093 72.3341 21.9653 72.3341 22.264C72.3341 22.5947 72.4408 22.888 72.6541 23.144C72.8675 23.3893 73.1928 23.5813 73.6301 23.72L75.8221 24.408C76.7715 24.7173 77.4808 25.144 77.9501 25.688C78.4301 26.232 78.6701 26.904 78.6701 27.704C78.6701 28.3867 78.4941 28.9893 78.1421 29.512C77.7901 30.0347 77.3048 30.4453 76.6861 30.744C76.0675 31.0427 75.3475 31.192 74.5261 31.192Z" fill="white"/>
</svg>
