<svg width="132" height="48" viewBox="0 0 132 48" fill="none" xmlns="http://www.w3.org/2000/svg">
<rect width="132" height="48" rx="10" fill="black"/>
<path d="M26.974 31.9739C26.8923 32.0554 26.99 32.1878 27.0915 32.133C29.6797 30.7329 33.174 28.8415 36.1272 27.2376C36.1862 27.2055 36.1971 27.1258 36.1492 27.0787L34.0683 25.0298C34.0292 24.9913 33.9663 24.9915 33.9275 25.0303L26.974 31.9739Z" fill="white"/>
<path d="M33.921 22.776C33.9601 22.8148 34.0232 22.8146 34.0621 22.7757L36.1439 20.6959C36.1912 20.6486 36.1796 20.569 36.1207 20.5372L35.1007 19.9866C33.8742 19.3246 32.2308 18.4377 30.563 17.5379C29.3139 16.864 28.0524 16.1836 26.9423 15.5852C26.8406 15.5304 26.7425 15.6629 26.8245 15.7442L33.921 22.776Z" fill="white"/>
<path d="M23 15.1962C23 14.9639 23.0351 14.7694 23.0963 14.6092C23.1595 14.4436 23.368 14.431 23.4939 14.5557L32.8585 23.8349C32.8979 23.8739 32.898 23.9376 32.8587 23.9768L23.4601 33.3475C23.3216 33.4856 23.0927 33.4522 23.0485 33.2617C23.0163 33.1235 23 32.9702 23 32.8055V15.1962Z" fill="white"/>
<path d="M37.6882 26.3886C37.6495 26.4096 37.6016 26.4029 37.5703 26.372L35.1324 23.9723C35.0927 23.9333 35.0926 23.8694 35.132 23.8301L37.5831 21.3934C37.6145 21.3622 37.6629 21.3555 37.7018 21.3767C39.7881 22.5145 41.4155 23.398 41.9117 23.6605C41.9302 23.6703 41.9447 23.6851 41.953 23.7044C41.9983 23.8088 42.0087 23.9126 41.9933 24.0125C41.9889 24.0414 41.9701 24.0651 41.9443 24.0787C41.6589 24.2291 40.7033 24.7489 39.3724 25.4728L39.3642 25.4773C38.8548 25.7543 38.2906 26.0612 37.6882 26.3886Z" fill="white"/>
<path d="M52.176 31L56.288 19.08H59.104L63.216 31H60.848L60 28.44H55.392L54.528 31H52.176ZM56.016 26.52H59.376L57.392 20.584H58L56.016 26.52ZM63.8866 31V22.296H65.8546V24.008L65.6946 23.704C65.8973 23.1813 66.228 22.7867 66.6866 22.52C67.156 22.2427 67.7 22.104 68.3186 22.104C68.9586 22.104 69.524 22.2427 70.0146 22.52C70.516 22.7973 70.9053 23.1867 71.1826 23.688C71.46 24.1787 71.5986 24.7493 71.5986 25.4V31H69.5026V25.896C69.5026 25.512 69.428 25.1813 69.2786 24.904C69.1293 24.6267 68.9213 24.4133 68.6546 24.264C68.3986 24.104 68.0946 24.024 67.7426 24.024C67.4013 24.024 67.0973 24.104 66.8306 24.264C66.564 24.4133 66.356 24.6267 66.2066 24.904C66.0573 25.1813 65.9826 25.512 65.9826 25.896V31H63.8866ZM76.939 31.192C76.0963 31.192 75.3443 30.9947 74.683 30.6C74.0217 30.1947 73.499 29.6453 73.115 28.952C72.731 28.2587 72.539 27.4907 72.539 26.648C72.539 25.7947 72.731 25.0267 73.115 24.344C73.499 23.6613 74.0217 23.1173 74.683 22.712C75.355 22.3067 76.1017 22.104 76.923 22.104C77.5843 22.104 78.171 22.2373 78.683 22.504C79.2057 22.76 79.6163 23.1227 79.915 23.592L79.595 24.024V18.888H81.691V31H79.707V29.32L79.931 29.736C79.6323 30.2053 79.2163 30.568 78.683 30.824C78.1497 31.0693 77.5683 31.192 76.939 31.192ZM77.163 29.272C77.643 29.272 78.0643 29.16 78.427 28.936C78.7897 28.712 79.0723 28.4027 79.275 28.008C79.4883 27.6133 79.595 27.16 79.595 26.648C79.595 26.1467 79.4883 25.6987 79.275 25.304C79.0723 24.8987 78.7897 24.584 78.427 24.36C78.0643 24.136 77.643 24.024 77.163 24.024C76.6937 24.024 76.2723 24.1413 75.899 24.376C75.5257 24.6 75.2323 24.9093 75.019 25.304C74.8163 25.688 74.715 26.136 74.715 26.648C74.715 27.16 74.8163 27.6133 75.019 28.008C75.2323 28.4027 75.5257 28.712 75.899 28.936C76.2723 29.16 76.6937 29.272 77.163 29.272ZM83.161 31V22.296H85.129V24.232L84.969 23.944C85.1717 23.2933 85.4863 22.84 85.913 22.584C86.3503 22.328 86.873 22.2 87.481 22.2H87.993V24.056H87.241C86.6437 24.056 86.1637 24.2427 85.801 24.616C85.4383 24.9787 85.257 25.4907 85.257 26.152V31H83.161ZM92.9214 31.192C92.068 31.192 91.2894 30.9947 90.5854 30.6C89.892 30.2053 89.3374 29.6667 88.9214 28.984C88.516 28.3013 88.3134 27.5227 88.3134 26.648C88.3134 25.7733 88.516 24.9947 88.9214 24.312C89.3374 23.6293 89.892 23.0907 90.5854 22.696C91.2787 22.3013 92.0574 22.104 92.9214 22.104C93.7747 22.104 94.548 22.3013 95.2414 22.696C95.9347 23.0907 96.484 23.6293 96.8894 24.312C97.3054 24.984 97.5134 25.7627 97.5134 26.648C97.5134 27.5227 97.3054 28.3013 96.8894 28.984C96.4734 29.6667 95.9187 30.2053 95.2254 30.6C94.532 30.9947 93.764 31.192 92.9214 31.192ZM92.9214 29.272C93.3907 29.272 93.8014 29.16 94.1534 28.936C94.516 28.712 94.7987 28.4027 95.0014 28.008C95.2147 27.6027 95.3214 27.1493 95.3214 26.648C95.3214 26.136 95.2147 25.688 95.0014 25.304C94.7987 24.9093 94.516 24.6 94.1534 24.376C93.8014 24.1413 93.3907 24.024 92.9214 24.024C92.4414 24.024 92.02 24.1413 91.6574 24.376C91.2947 24.6 91.0067 24.9093 90.7934 25.304C90.5907 25.688 90.4894 26.136 90.4894 26.648C90.4894 27.1493 90.5907 27.6027 90.7934 28.008C91.0067 28.4027 91.2947 28.712 91.6574 28.936C92.02 29.16 92.4414 29.272 92.9214 29.272ZM98.6229 31V22.296H100.719V31H98.6229ZM98.6229 21.32V19.08H100.719V21.32H98.6229ZM106.222 31.192C105.379 31.192 104.627 30.9947 103.966 30.6C103.305 30.1947 102.782 29.6453 102.398 28.952C102.014 28.2587 101.822 27.4907 101.822 26.648C101.822 25.7947 102.014 25.0267 102.398 24.344C102.782 23.6613 103.305 23.1173 103.966 22.712C104.638 22.3067 105.385 22.104 106.206 22.104C106.867 22.104 107.454 22.2373 107.966 22.504C108.489 22.76 108.899 23.1227 109.198 23.592L108.878 24.024V18.888H110.974V31H108.99V29.32L109.214 29.736C108.915 30.2053 108.499 30.568 107.966 30.824C107.433 31.0693 106.851 31.192 106.222 31.192ZM106.446 29.272C106.926 29.272 107.347 29.16 107.71 28.936C108.073 28.712 108.355 28.4027 108.558 28.008C108.771 27.6133 108.878 27.16 108.878 26.648C108.878 26.1467 108.771 25.6987 108.558 25.304C108.355 24.8987 108.073 24.584 107.71 24.36C107.347 24.136 106.926 24.024 106.446 24.024C105.977 24.024 105.555 24.1413 105.182 24.376C104.809 24.6 104.515 24.9093 104.302 25.304C104.099 25.688 103.998 26.136 103.998 26.648C103.998 27.16 104.099 27.6133 104.302 28.008C104.515 28.4027 104.809 28.712 105.182 28.936C105.555 29.16 105.977 29.272 106.446 29.272Z" fill="white"/>
</svg>
