<svg width="108" height="48" viewBox="0 0 108 48" fill="none" xmlns="http://www.w3.org/2000/svg">
<rect width="108" height="48" rx="10" fill="black"/>
<path fill-rule="evenodd" clip-rule="evenodd" d="M22 24C22 18.4772 26.4772 14 32 14C37.5228 14 42 18.4772 42 24C42 29.5228 37.5228 34 32 34C26.4772 34 22 29.5228 22 24ZM35.0769 18.2308C32.7403 18.2308 30.8462 20.1249 30.8462 22.4615C30.8462 24.7981 32.7403 26.6923 35.0769 26.6923C37.4135 26.6923 39.3077 24.7981 39.3077 22.4615C39.3077 20.1249 37.4135 18.2308 35.0769 18.2308ZM25.6923 27.8462C25.6923 26.7841 26.5533 25.9231 27.6154 25.9231C28.6775 25.9231 29.5385 26.7841 29.5385 27.8462C29.5385 28.9082 28.6775 29.7692 27.6154 29.7692C26.5533 29.7692 25.6923 28.9082 25.6923 27.8462Z" fill="white"/>
<path d="M55.376 31L52.176 19.08H54.512L57.024 29.24H56.416L59.04 19.08H61.296L63.904 29.24H63.296L65.808 19.08H68.144L64.944 31H62.448L59.808 21.112H60.512L57.872 31H55.376ZM72.4209 31.192C71.5249 31.192 70.7409 30.9893 70.0689 30.584C69.3969 30.1787 68.8742 29.6293 68.5009 28.936C68.1275 28.2427 67.9409 27.4747 67.9409 26.632C67.9409 25.7573 68.1275 24.984 68.5009 24.312C68.8849 23.6293 69.4022 23.0907 70.0529 22.696C70.7142 22.3013 71.4502 22.104 72.2609 22.104C72.9435 22.104 73.5409 22.216 74.0529 22.44C74.5755 22.664 75.0182 22.9733 75.3809 23.368C75.7435 23.7627 76.0209 24.216 76.2129 24.728C76.4049 25.2293 76.5009 25.7733 76.5009 26.36C76.5009 26.5093 76.4902 26.664 76.4689 26.824C76.4582 26.984 76.4315 27.1227 76.3889 27.24H69.6689V25.64H75.2049L74.2129 26.392C74.3089 25.9013 74.2822 25.464 74.1329 25.08C73.9942 24.696 73.7595 24.392 73.4289 24.168C73.1089 23.944 72.7195 23.832 72.2609 23.832C71.8235 23.832 71.4342 23.944 71.0929 24.168C70.7515 24.3813 70.4902 24.7013 70.3089 25.128C70.1382 25.544 70.0742 26.0507 70.1169 26.648C70.0742 27.1813 70.1435 27.656 70.3249 28.072C70.5169 28.4773 70.7942 28.792 71.1569 29.016C71.5302 29.24 71.9569 29.352 72.4369 29.352C72.9169 29.352 73.3222 29.2507 73.6529 29.048C73.9942 28.8453 74.2609 28.5733 74.4529 28.232L76.1489 29.064C75.9782 29.48 75.7115 29.848 75.3489 30.168C74.9862 30.488 74.5542 30.7387 74.0529 30.92C73.5622 31.1013 73.0182 31.192 72.4209 31.192ZM82.3618 31.192C81.7324 31.192 81.1511 31.0693 80.6178 30.824C80.0951 30.568 79.6791 30.2053 79.3698 29.736L79.5778 29.32V31H77.6098V18.888H79.7058V24.024L79.3858 23.592C79.6844 23.1227 80.0898 22.76 80.6018 22.504C81.1138 22.2373 81.7058 22.104 82.3778 22.104C83.1991 22.104 83.9404 22.3067 84.6018 22.712C85.2631 23.1173 85.7858 23.6613 86.1698 24.344C86.5644 25.0267 86.7618 25.7947 86.7618 26.648C86.7618 27.4907 86.5698 28.2587 86.1858 28.952C85.8018 29.6453 85.2791 30.1947 84.6178 30.6C83.9564 30.9947 83.2044 31.192 82.3618 31.192ZM82.1218 29.272C82.6018 29.272 83.0284 29.16 83.4018 28.936C83.7751 28.712 84.0631 28.4027 84.2658 28.008C84.4791 27.6133 84.5858 27.16 84.5858 26.648C84.5858 26.136 84.4791 25.688 84.2658 25.304C84.0631 24.9093 83.7751 24.6 83.4018 24.376C83.0284 24.1413 82.6018 24.024 82.1218 24.024C81.6631 24.024 81.2471 24.136 80.8738 24.36C80.5111 24.584 80.2231 24.8987 80.0098 25.304C79.8071 25.6987 79.7058 26.1467 79.7058 26.648C79.7058 27.16 79.8071 27.6133 80.0098 28.008C80.2231 28.4027 80.5111 28.712 80.8738 28.936C81.2471 29.16 81.6631 29.272 82.1218 29.272Z" fill="white"/>
</svg>
